<?xml version="1.0" encoding="utf-8"?>
<!-- Generator: Adobe Illustrator 15.1.0, SVG Export Plug-In . SVG Version: 6.00 Build 0)  -->
<!DOCTYPE svg PUBLIC "-//W3C//DTD SVG 1.1//EN" "http://www.w3.org/Graphics/SVG/1.1/DTD/svg11.dtd">
<svg version="1.1" id="Layer_1" xmlns="http://www.w3.org/2000/svg" xmlns:xlink="http://www.w3.org/1999/xlink" x="0px" y="0px"
	 width="256.229px" height="46.53px" viewBox="4.463 1.661 256.229 46.53" enable-background="new 4.463 1.661 256.229 46.53"
	 xml:space="preserve">
<rect x="-188.006" y="51.275" fill="none" width="107.263" height="21.25"/>
<text transform="matrix(1 0 0 1 -188.0059 61.2302)" font-family="'Futura-CondensedMedium'" font-size="12">ENTERPRISECOCKPIT</text>
<g>
	<path fill="#020202" d="M190.018,19.425l-0.845,2.362c-0.969-1.286-2.325-1.929-4.075-1.929c-1.543,0-2.925,0.548-4.123,1.645
		c-1.209,1.089-2.021,2.518-2.427,4.27c-0.378,1.638-0.214,2.917,0.495,3.835c0.701,0.917,1.895,1.372,3.562,1.372
		c1.394,0,2.72-0.436,3.979-1.285l-0.9,2.561C184.23,32.75,182.918,33,181.76,33c-2.111,0-3.669-0.67-4.646-2.013
		c-0.984-1.33-1.224-3.104-0.714-5.312c0.521-2.257,1.641-4.128,3.354-5.607c1.729-1.487,3.628-2.231,5.719-2.231
		C187.116,17.826,188.632,18.358,190.018,19.425z"/>
	<path fill="#020202" d="M205.049,25.131c-0.385,1.665-1.172,3.18-2.363,4.529c-0.945,1.063-2.053,1.886-3.312,2.466
		c-1.263,0.58-2.576,0.869-3.945,0.869c-2.186,0-3.808-0.696-4.858-2.088c-1.062-1.399-1.331-3.207-0.818-5.425
		c0.512-2.211,1.664-4.04,3.459-5.482c1.805-1.448,3.822-2.174,6.062-2.174c2.233,0,3.89,0.671,4.945,2.014
		C205.275,21.176,205.557,22.939,205.049,25.131z M202.881,25.113c0.367-1.594,0.188-2.87-0.529-3.827
		c-0.729-0.95-1.892-1.428-3.479-1.428c-1.601,0-3.065,0.536-4.405,1.604c-1.32,1.07-2.172,2.408-2.542,4.021
		c-0.364,1.587-0.169,2.896,0.597,3.938c0.764,1.033,1.905,1.556,3.438,1.556c1.595,0,3.049-0.562,4.363-1.68
		C201.635,28.198,202.49,26.802,202.881,25.113z"/>
	<path fill="#020202" d="M220.477,19.425l-0.836,2.362c-0.976-1.286-2.33-1.929-4.082-1.929c-1.545,0-2.916,0.548-4.123,1.645
		c-1.209,1.089-2.021,2.518-2.42,4.27c-0.387,1.638-0.219,2.917,0.487,3.835c0.703,0.917,1.896,1.372,3.562,1.372
		c1.396,0,2.724-0.436,3.979-1.285l-0.897,2.561C214.689,32.75,213.379,33,212.223,33c-2.117,0-3.666-0.67-4.646-2.013
		c-0.986-1.33-1.225-3.104-0.712-5.312c0.52-2.257,1.64-4.128,3.354-5.607c1.729-1.487,3.636-2.231,5.72-2.231
		C217.576,17.826,219.093,18.358,220.477,19.425z"/>
	<path fill="#020202" d="M225.957,18.119l-2.188,6.199l7.328-6.199h2.729l-8.373,6.786l4.32,7.807h-2.605l-3.854-7.108l-2.518,7.108
		h-2.158l5.159-14.593H225.957z"/>
	<path fill="#020202" d="M236.854,18.119h2.957c1.287,0,2.217,0.214,2.795,0.646c0.474,0.346,0.795,0.834,0.963,1.464
		c0.166,0.646,0.166,1.334,0,2.052c-0.239,1.046-0.746,1.965-1.521,2.76c-1.142,1.178-2.646,1.771-4.521,1.771h-1.598l-2.096,5.898
		h-2.167L236.854,18.119z M238.299,20.132l-1.683,4.762h1.405c0.891,0,1.623-0.229,2.205-0.688c0.58-0.458,0.973-1.116,1.17-1.979
		c0.316-1.396-0.404-2.097-2.186-2.097L238.299,20.132L238.299,20.132z"/>
	<path fill="#020202" d="M249.802,18.119l-5.159,14.593h-2.164l5.164-14.593H249.802z"/>
	<path fill="#020202" d="M256.645,20.132l-4.455,12.58h-2.164l4.455-12.58h-3.486l0.708-2.013h8.989l-0.713,2.013H256.645z"/>
</g>
<path fill="#428BCA" d="M50.994,0"/>
<circle fill="none" cx="39.808" cy="14.067" r="5.287"/>
<rect x="62.568" y="18.119" fill="none" width="213.567" height="77"/>
<g>
	<path fill="#DB901B" d="M61.285,26.75l-2.171,6.308h-2.343l5.348-15.531h2.655c1.301,0,2.252,0.091,2.854,0.271
		c0.608,0.182,1.08,0.522,1.417,1.026c0.592,0.871,0.659,1.971,0.202,3.299c-0.49,1.422-1.353,2.549-2.591,3.38
		c-1.239,0.831-2.666,1.247-4.282,1.247H61.285z M62.033,24.577h0.876c2.152,0,3.514-0.828,4.084-2.484
		c0.552-1.604-0.282-2.402-2.502-2.402h-0.774L62.033,24.577z"/>
	<path fill="#DB901B" d="M77.181,29.284h-6.649l-3.028,3.772h-2.525L78.348,16.55l1.73,16.507h-2.565L77.181,29.284z M76.984,27.081
		l-0.485-5.28l-4.232,5.28H76.984z"/>
	<path fill="#DB901B" d="M95.35,19.84l-2.289,1.126c-0.143-0.615-0.343-1.02-0.601-1.207c-0.261-0.215-0.657-0.321-1.186-0.321
		c-0.65,0-1.254,0.186-1.811,0.554c-0.554,0.362-0.925,0.818-1.115,1.368c-0.261,0.758,0.093,1.367,1.061,1.83l1.33,0.635
		c1.085,0.51,1.793,1.131,2.123,1.866c0.331,0.732,0.312,1.634-0.055,2.699c-0.492,1.429-1.374,2.608-2.646,3.541
		c-1.283,0.938-2.635,1.407-4.057,1.407c-1.348,0-2.323-0.397-2.927-1.195c-0.591-0.799-0.744-1.922-0.459-3.37l2.554-0.522
		c-0.207,0.912-0.236,1.542-0.088,1.892c0.251,0.67,0.84,1.006,1.766,1.006c0.73,0,1.423-0.245,2.073-0.734
		c0.652-0.489,1.107-1.109,1.365-1.859c0.104-0.303,0.157-0.579,0.16-0.83c0.002-0.251-0.049-0.483-0.153-0.694
		c-0.105-0.211-0.267-0.409-0.484-0.593c-0.219-0.186-0.493-0.361-0.824-0.528l-1.284-0.624c-1.816-0.898-2.427-2.213-1.831-3.943
		c0.402-1.167,1.184-2.142,2.346-2.927c1.164-0.791,2.411-1.187,3.738-1.187C93.847,17.224,94.944,18.096,95.35,19.84z"/>
	<path fill="#DB901B" d="M107.36,19.84l-2.289,1.126c-0.143-0.615-0.343-1.02-0.601-1.207c-0.261-0.215-0.657-0.321-1.186-0.321
		c-0.65,0-1.254,0.186-1.811,0.554c-0.554,0.362-0.925,0.818-1.115,1.368c-0.261,0.758,0.093,1.367,1.061,1.83l1.33,0.635
		c1.085,0.51,1.793,1.131,2.123,1.866c0.331,0.732,0.312,1.634-0.055,2.699c-0.492,1.429-1.374,2.608-2.646,3.541
		c-1.283,0.938-2.635,1.407-4.057,1.407c-1.348,0-2.323-0.397-2.927-1.195c-0.591-0.799-0.744-1.922-0.459-3.37l2.554-0.522
		c-0.207,0.912-0.236,1.542-0.088,1.892c0.251,0.67,0.84,1.006,1.766,1.006c0.73,0,1.423-0.245,2.073-0.734
		c0.652-0.489,1.107-1.109,1.365-1.859c0.104-0.303,0.157-0.579,0.16-0.83c0.002-0.251-0.049-0.483-0.153-0.694
		c-0.105-0.211-0.267-0.409-0.484-0.593c-0.219-0.186-0.493-0.361-0.824-0.528l-1.284-0.624c-1.816-0.898-2.427-2.213-1.831-3.943
		c0.402-1.167,1.184-2.142,2.346-2.927c1.164-0.791,2.411-1.187,3.738-1.187C105.857,17.224,106.953,18.096,107.36,19.84z"/>
	<path fill="#DB901B" d="M112.109,17.525l0.469,10.382l8.059-11.136l0.209,11.136l7.87-10.382h2.545l-12.628,16.518l-0.204-11.005
		l-7.957,11.014l-0.908-16.525L112.109,17.525L112.109,17.525z"/>
	<path fill="#DB901B" d="M129.064,25.22c0.752-2.187,2.203-4.063,4.344-5.633c2.137-1.569,4.324-2.354,6.564-2.354
		c2.213,0,3.838,0.792,4.875,2.373c1.045,1.583,1.186,3.483,0.42,5.704c-0.769,2.231-2.22,4.127-4.353,5.684
		c-2.142,1.562-4.344,2.343-6.608,2.343c-2.007,0-3.566-0.693-4.687-2.082C128.394,29.72,128.207,27.708,129.064,25.22z
		 M131.418,25.251c-0.592,1.717-0.502,3.129,0.271,4.235c0.766,1.104,1.899,1.659,3.401,1.659c1.629,0,3.197-0.563,4.705-1.69
		c1.515-1.139,2.552-2.526,3.113-4.164c0.569-1.655,0.496-3.044-0.226-4.164c-0.713-1.127-1.881-1.689-3.502-1.689
		c-1.616,0-3.176,0.562-4.676,1.689C133.011,22.24,131.98,23.615,131.418,25.251z"/>
	<path fill="#DB901B" d="M153.088,26.437l2.529,6.619h-2.867l-2.246-6.357h-0.424l-2.189,6.357h-2.342l5.348-15.531h2.744
		c2.053,0,3.402,0.386,4.049,1.157c0.711,0.857,0.822,1.99,0.338,3.398c-0.379,1.101-1.02,2.046-1.922,2.837
		C155.204,25.709,154.197,26.216,153.088,26.437z M150.783,24.657h0.746c2.219,0,3.621-0.848,4.205-2.544
		c0.547-1.59-0.26-2.385-2.418-2.385h-0.836L150.783,24.657z"/>
	<path fill="#DB901B" d="M157.951,33.056l5.348-15.531h3.258c1.562,0,2.744,0.155,3.543,0.464c0.869,0.301,1.574,0.814,2.115,1.538
		c1.1,1.463,1.24,3.384,0.42,5.764c-0.822,2.389-2.322,4.318-4.5,5.794c-1.092,0.738-2.146,1.25-3.166,1.539
		c-0.957,0.288-2.225,0.434-3.799,0.434L157.951,33.056L157.951,33.056z M161.052,30.853h1.058c1.053,0,1.965-0.111,2.738-0.332
		c0.778-0.234,1.536-0.606,2.276-1.116c1.517-1.053,2.563-2.425,3.146-4.114c0.588-1.702,0.491-3.084-0.283-4.144
		c-0.699-0.946-2.049-1.419-4.047-1.419h-1.058L161.052,30.853z"/>
</g>
<path d="M22.085,18.937L4.463,36.558v8.725c0,1.605,1.302,2.908,2.909,2.908h2.907v-2.908h5.816v-5.816h5.817v-5.814h5.815
	l3.715-3.715C26.66,28.191,23.047,24.038,22.085,18.937z"/>
<path fill="#DB901B" d="M36.452,30.743c8.031,0,14.542-6.512,14.542-14.541c0-8.031-6.511-14.541-14.542-14.541
	c-8.031,0-14.54,6.51-14.54,14.541c0,0.91,0.084,1.8,0.244,2.664l-0.071,0.071c0.961,5.102,4.575,9.254,9.358,11l0.059-0.06
	C33.047,30.436,34.714,30.743,36.452,30.743z M40.809,7.484c2.41,0,4.362,1.953,4.362,4.362c0,2.408-1.953,4.361-4.362,4.361
	c-2.409,0-4.362-1.954-4.362-4.361C36.447,9.436,38.4,7.484,40.809,7.484z"/>
</svg>
