<?xml version="1.0" encoding="utf-8"?>
<!-- Generator: Adobe Illustrator 16.0.0, SVG Export Plug-In . SVG Version: 6.00 Build 0)  -->
<!DOCTYPE svg PUBLIC "-//W3C//DTD SVG 1.1//EN" "http://www.w3.org/Graphics/SVG/1.1/DTD/svg11.dtd">
<svg version="1.1" id="Layer_1" xmlns="http://www.w3.org/2000/svg" xmlns:xlink="http://www.w3.org/1999/xlink" x="0px" y="0px"
	 width="256.229px" height="48.191px" viewBox="4.463 0 256.229 48.191" enable-background="new 4.463 0 256.229 48.191"
	 xml:space="preserve">
<g>
	<g>
		<path fill="#020202" d="M190.018,19.425l-0.845,2.362c-0.969-1.286-2.325-1.929-4.075-1.929c-1.543,0-2.925,0.548-4.123,1.645
			c-1.209,1.089-2.021,2.518-2.427,4.27c-0.378,1.639-0.214,2.917,0.495,3.835c0.701,0.917,1.895,1.372,3.562,1.372
			c1.395,0,2.721-0.436,3.979-1.285l-0.9,2.561C184.23,32.75,182.918,33,181.76,33c-2.111,0-3.669-0.67-4.646-2.013
			c-0.984-1.329-1.225-3.104-0.715-5.312c0.521-2.257,1.642-4.128,3.354-5.607c1.729-1.487,3.628-2.231,5.719-2.231
			C187.116,17.826,188.632,18.358,190.018,19.425z"/>
		<path fill="#020202" d="M205.049,25.13c-0.385,1.666-1.172,3.181-2.363,4.529c-0.944,1.063-2.053,1.887-3.312,2.467
			c-1.264,0.58-2.576,0.869-3.945,0.869c-2.186,0-3.808-0.697-4.858-2.088c-1.062-1.4-1.33-3.207-0.817-5.426
			c0.512-2.211,1.664-4.04,3.459-5.482c1.805-1.448,3.822-2.174,6.062-2.174c2.233,0,3.891,0.671,4.945,2.014
			C205.275,21.176,205.557,22.939,205.049,25.13z M202.881,25.113c0.367-1.594,0.188-2.87-0.529-3.827
			c-0.729-0.95-1.892-1.428-3.479-1.428c-1.602,0-3.065,0.536-4.405,1.604c-1.32,1.07-2.172,2.409-2.542,4.021
			c-0.364,1.587-0.169,2.896,0.597,3.938c0.765,1.033,1.905,1.556,3.438,1.556c1.595,0,3.049-0.562,4.363-1.681
			C201.635,28.199,202.49,26.802,202.881,25.113z"/>
		<path fill="#020202" d="M220.477,19.425l-0.836,2.362c-0.976-1.286-2.33-1.929-4.082-1.929c-1.545,0-2.916,0.548-4.123,1.645
			c-1.209,1.089-2.021,2.518-2.42,4.27c-0.387,1.639-0.219,2.917,0.487,3.835c0.703,0.917,1.896,1.372,3.562,1.372
			c1.396,0,2.725-0.436,3.979-1.285l-0.897,2.561C214.689,32.75,213.379,33,212.223,33c-2.117,0-3.666-0.67-4.646-2.013
			c-0.986-1.329-1.226-3.104-0.712-5.312c0.52-2.257,1.64-4.128,3.354-5.607c1.729-1.487,3.636-2.231,5.72-2.231
			C217.576,17.826,219.093,18.358,220.477,19.425z"/>
		<path fill="#020202" d="M225.957,18.119l-2.188,6.199l7.328-6.199h2.729l-8.373,6.787l4.319,7.807h-2.604l-3.854-7.108
			l-2.518,7.108h-2.158l5.159-14.593H225.957z"/>
		<path fill="#020202" d="M236.854,18.119h2.957c1.287,0,2.217,0.214,2.795,0.646c0.475,0.346,0.795,0.834,0.963,1.464
			c0.166,0.646,0.166,1.334,0,2.052c-0.238,1.046-0.745,1.964-1.521,2.759c-1.142,1.178-2.646,1.771-4.521,1.771h-1.598
			l-2.096,5.898h-2.167L236.854,18.119z M238.299,20.132l-1.683,4.762h1.404c0.892,0,1.623-0.229,2.205-0.688
			c0.58-0.458,0.974-1.117,1.17-1.979c0.316-1.396-0.403-2.097-2.186-2.097L238.299,20.132L238.299,20.132z"/>
		<path fill="#020202" d="M249.802,18.119l-5.159,14.593h-2.164l5.164-14.593H249.802z"/>
		<path fill="#020202" d="M256.645,20.132l-4.455,12.581h-2.164l4.455-12.581h-3.485l0.708-2.013h8.988l-0.713,2.013H256.645z"/>
	</g>
	<path fill="#428BCA" d="M50.994,0"/>
	<circle fill="none" cx="39.808" cy="14.067" r="5.287"/>
	<g>
		<path fill="#DB901B" d="M61.285,26.75l-2.171,6.309h-2.344l5.349-15.531h2.654c1.302,0,2.252,0.091,2.854,0.271
			c0.607,0.182,1.08,0.522,1.417,1.026c0.592,0.871,0.659,1.971,0.202,3.299c-0.49,1.422-1.354,2.548-2.591,3.38
			c-1.239,0.83-2.666,1.246-4.282,1.246H61.285z M62.033,24.578h0.876c2.151,0,3.514-0.829,4.084-2.485
			c0.552-1.604-0.282-2.402-2.502-2.402h-0.774L62.033,24.578z"/>
		<path fill="#DB901B" d="M77.181,29.285h-6.648l-3.028,3.771h-2.525L78.348,16.55l1.73,16.507h-2.565L77.181,29.285z
			 M76.984,27.082l-0.484-5.281l-4.232,5.281H76.984z"/>
		<path fill="#DB901B" d="M95.35,19.84l-2.289,1.126c-0.143-0.615-0.343-1.02-0.601-1.207c-0.261-0.215-0.657-0.321-1.187-0.321
			c-0.649,0-1.254,0.186-1.811,0.554c-0.554,0.362-0.925,0.818-1.115,1.368c-0.261,0.758,0.093,1.367,1.062,1.83l1.33,0.636
			c1.085,0.51,1.793,1.131,2.122,1.865c0.331,0.732,0.312,1.635-0.055,2.699c-0.492,1.429-1.374,2.607-2.646,3.541
			c-1.283,0.938-2.636,1.406-4.058,1.406c-1.348,0-2.322-0.396-2.927-1.194c-0.591-0.8-0.744-1.922-0.459-3.37l2.554-0.521
			c-0.207,0.912-0.235,1.541-0.088,1.892c0.251,0.67,0.84,1.006,1.767,1.006c0.729,0,1.423-0.245,2.072-0.733
			c0.652-0.49,1.107-1.109,1.365-1.859c0.104-0.303,0.157-0.579,0.16-0.83c0.002-0.251-0.049-0.482-0.153-0.693
			c-0.104-0.212-0.267-0.41-0.483-0.594c-0.22-0.186-0.493-0.361-0.824-0.527l-1.284-0.625c-1.816-0.897-2.427-2.212-1.831-3.943
			c0.402-1.167,1.185-2.142,2.346-2.927c1.164-0.791,2.411-1.187,3.738-1.187C93.847,17.224,94.944,18.096,95.35,19.84z"/>
		<path fill="#DB901B" d="M107.36,19.84l-2.289,1.126c-0.143-0.615-0.343-1.02-0.601-1.207c-0.261-0.215-0.657-0.321-1.186-0.321
			c-0.65,0-1.254,0.186-1.812,0.554c-0.554,0.362-0.925,0.818-1.115,1.368c-0.261,0.758,0.094,1.367,1.062,1.83l1.33,0.636
			c1.085,0.51,1.793,1.131,2.123,1.865c0.331,0.732,0.312,1.635-0.056,2.699c-0.491,1.429-1.374,2.607-2.646,3.541
			c-1.283,0.938-2.635,1.406-4.057,1.406c-1.349,0-2.323-0.396-2.928-1.194c-0.591-0.8-0.744-1.922-0.459-3.37l2.555-0.521
			c-0.207,0.912-0.236,1.541-0.089,1.892c0.251,0.67,0.841,1.006,1.767,1.006c0.729,0,1.423-0.245,2.073-0.733
			c0.651-0.49,1.106-1.109,1.364-1.859c0.104-0.303,0.157-0.579,0.16-0.83c0.002-0.251-0.049-0.482-0.152-0.693
			c-0.105-0.212-0.268-0.41-0.484-0.594c-0.219-0.186-0.493-0.361-0.824-0.527l-1.284-0.625c-1.815-0.897-2.427-2.212-1.831-3.943
			c0.402-1.167,1.185-2.142,2.347-2.927c1.164-0.791,2.411-1.187,3.737-1.187C105.857,17.224,106.953,18.096,107.36,19.84z"/>
		<path fill="#DB901B" d="M112.109,17.525l0.47,10.383l8.059-11.137l0.209,11.137l7.87-10.383h2.545l-12.628,16.518l-0.204-11.004
			l-7.957,11.014l-0.908-16.525L112.109,17.525L112.109,17.525z"/>
		<path fill="#DB901B" d="M129.064,25.22c0.752-2.187,2.203-4.063,4.345-5.633c2.137-1.569,4.323-2.354,6.563-2.354
			c2.213,0,3.838,0.792,4.875,2.373c1.045,1.583,1.187,3.483,0.42,5.704c-0.769,2.23-2.22,4.127-4.353,5.684
			c-2.143,1.562-4.345,2.344-6.608,2.344c-2.007,0-3.565-0.693-4.687-2.082C128.394,29.72,128.207,27.708,129.064,25.22z
			 M131.418,25.251c-0.592,1.717-0.502,3.129,0.271,4.234c0.767,1.104,1.899,1.659,3.401,1.659c1.629,0,3.197-0.563,4.705-1.69
			c1.515-1.139,2.552-2.525,3.113-4.164c0.568-1.655,0.495-3.043-0.227-4.164c-0.713-1.127-1.881-1.689-3.502-1.689
			c-1.616,0-3.176,0.562-4.676,1.689C133.011,22.24,131.98,23.615,131.418,25.251z"/>
		<path fill="#DB901B" d="M153.088,26.437l2.529,6.619h-2.867l-2.246-6.357h-0.424l-2.189,6.357h-2.342l5.348-15.531h2.744
			c2.053,0,3.402,0.386,4.049,1.157c0.711,0.857,0.822,1.99,0.338,3.398c-0.379,1.101-1.02,2.046-1.922,2.837
			C155.204,25.708,154.198,26.216,153.088,26.437z M150.783,24.658h0.745c2.22,0,3.621-0.849,4.205-2.545
			c0.548-1.59-0.26-2.385-2.418-2.385h-0.836L150.783,24.658z"/>
		<path fill="#DB901B" d="M157.951,33.056l5.348-15.531h3.258c1.562,0,2.744,0.155,3.543,0.464c0.869,0.301,1.574,0.813,2.115,1.538
			c1.1,1.463,1.24,3.384,0.42,5.764c-0.822,2.39-2.322,4.318-4.5,5.795c-1.092,0.738-2.146,1.25-3.166,1.539
			c-0.957,0.287-2.225,0.434-3.799,0.434L157.951,33.056L157.951,33.056z M161.052,30.853h1.058c1.054,0,1.966-0.111,2.738-0.332
			c0.778-0.234,1.536-0.605,2.276-1.115c1.517-1.054,2.562-2.426,3.146-4.115c0.588-1.702,0.491-3.083-0.283-4.144
			c-0.698-0.946-2.049-1.419-4.047-1.419h-1.058L161.052,30.853z"/>
	</g>
	<path d="M22.085,18.937L4.463,36.558v8.725c0,1.605,1.302,2.908,2.909,2.908h2.906v-2.908h5.816v-5.816h5.817v-5.813h5.814
		l3.715-3.715C26.66,28.191,23.047,24.039,22.085,18.937z"/>
	<path fill="#DB901B" d="M36.452,30.744c8.03,0,14.542-6.513,14.542-14.542c0-8.031-6.512-14.541-14.542-14.541
		c-8.031,0-14.54,6.51-14.54,14.541c0,0.91,0.084,1.8,0.244,2.664l-0.071,0.071c0.961,5.102,4.575,9.254,9.357,11l0.06-0.061
		C33.047,30.436,34.714,30.744,36.452,30.744z M40.809,7.484c2.41,0,4.362,1.953,4.362,4.362c0,2.408-1.953,4.361-4.362,4.361
		s-4.361-1.954-4.361-4.361C36.448,9.436,38.4,7.484,40.809,7.484z"/>
</g>
</svg>
